<svg xmlns="http://www.w3.org/2000/svg" width="1200" height="880" viewBox="0 0 1200 880" role="img" aria-label="世界杯预测变化图">
<style>text{font-family:-apple-system,BlinkMacSystemFont,"Segoe UI","PingFang SC","Noto Sans CJK SC",Arial,sans-serif}.bg{fill:#f6f7f2}.card{fill:#fff;stroke:#d9ded5}.title{font-size:34px;font-weight:700;fill:#172026}.subtitle{font-size:15px;fill:#667085}.h{font-size:21px;font-weight:700;fill:#172026}.label{font-size:16px;font-weight:600;fill:#172026}.small{font-size:13px;fill:#667085}.num{font-size:18px;font-weight:700;fill:#172026}.pos{fill:#13795b}.neg{fill:#c2410c}.zero{fill:#667085}.barbg{fill:#edf1ec}.green{fill:#13795b}.red{fill:#c2410c}</style>
<rect width="1200" height="880" class="bg"/>
<text x="44" y="58" class="title">2026-07-07 → 2026-07-08 预测变化图</text>
<text x="44" y="88" class="subtitle">来源：forecasts/daily/2026-07-07.md 与 forecasts/latest.md；市场信号：未配置</text>
<rect x="44" y="120" width="220" height="116" rx="8" class="card"/>
<text x="64" y="154" class="small">已完赛</text>
<text x="64" y="194" class="num">94 场 → 96 场</text>
<text x="64" y="222" class="small pos">+2 场</text>
<rect x="294" y="120" width="220" height="116" rx="8" class="card"/>
<text x="314" y="154" class="small">剩余场次</text>
<text x="314" y="194" class="num">10 场 → 8 场</text>
<text x="314" y="222" class="small neg">-2 场</text>
<rect x="544" y="120" width="220" height="116" rx="8" class="card"/>
<text x="564" y="154" class="small">待预测16强</text>
<text x="564" y="194" class="num">2 场 → 4 场</text>
<text x="564" y="222" class="small pos">+2 场</text>
<rect x="44" y="270" width="1112" height="360" rx="8" class="card"/>
<text x="70" y="312" class="h">冠军概率变化</text>
<text x="72" y="352" class="label">法国</text>
<text x="230" y="352" class="small">48.4% → 48.1%</text>
<rect x="430" y="338" width="300" height="16" rx="8" class="barbg"/>
<rect x="543.8" y="338" width="36.2" height="16" rx="8" class="red"/>
<line x1="580" y1="333" x2="580" y2="359" stroke="#98a2b3" stroke-width="1"/>
<text x="760" y="352" class="num neg">-0.3pp</text>
<text x="72" y="392" class="label">阿根廷</text>
<text x="230" y="392" class="small">39.0% → 40.2%</text>
<rect x="430" y="378" width="300" height="16" rx="8" class="barbg"/>
<rect x="580.0" y="378" width="145.0" height="16" rx="8" class="green"/>
<line x1="580" y1="373" x2="580" y2="399" stroke="#98a2b3" stroke-width="1"/>
<text x="760" y="392" class="num pos">+1.2pp</text>
<text x="72" y="432" class="label">西班牙</text>
<text x="230" y="432" class="small">4.8% → 4.4%</text>
<rect x="430" y="418" width="300" height="16" rx="8" class="barbg"/>
<rect x="531.7" y="418" width="48.3" height="16" rx="8" class="red"/>
<line x1="580" y1="413" x2="580" y2="439" stroke="#98a2b3" stroke-width="1"/>
<text x="760" y="432" class="num neg">-0.4pp</text>
<text x="72" y="472" class="label">英格兰</text>
<text x="230" y="472" class="small">4.7% → 4.1%</text>
<rect x="430" y="458" width="300" height="16" rx="8" class="barbg"/>
<rect x="507.5" y="458" width="72.5" height="16" rx="8" class="red"/>
<line x1="580" y1="453" x2="580" y2="479" stroke="#98a2b3" stroke-width="1"/>
<text x="760" y="472" class="num neg">-0.6pp</text>
<text x="72" y="512" class="label">瑞士</text>
<text x="230" y="512" class="small">0.6% → 1.0%</text>
<rect x="430" y="498" width="300" height="16" rx="8" class="barbg"/>
<rect x="580.0" y="498" width="48.3" height="16" rx="8" class="green"/>
<line x1="580" y1="493" x2="580" y2="519" stroke="#98a2b3" stroke-width="1"/>
<text x="760" y="512" class="num pos">+0.4pp</text>
<text x="72" y="552" class="label">摩洛哥</text>
<text x="230" y="552" class="small">0.9% → 0.9%</text>
<rect x="430" y="538" width="300" height="16" rx="8" class="barbg"/>
<rect x="580.0" y="538" width="0.0" height="16" rx="8" class="green"/>
<line x1="580" y1="533" x2="580" y2="559" stroke="#98a2b3" stroke-width="1"/>
<text x="760" y="552" class="num zero">+0.0pp</text>
<rect x="44" y="660" width="1112" height="156" rx="8" class="card"/>
<text x="70" y="702" class="h">16强预测队列变化</text>
<text x="70" y="738" class="label">从预测表移除：阿根廷 vs 埃及、瑞士 vs 哥伦比亚</text>
<text x="70" y="772" class="small">新增待预测：法国 vs 摩洛哥、西班牙 vs 比利时、挪威 vs 英格兰、W95 vs W96</text>
<text x="70" y="802" class="small">高置信场次：1 → 1；低置信接近盘：1 → 1。不在图中补写比分或赛事实况。</text>
</svg>
