<svg xmlns="http://www.w3.org/2000/svg" xmlns:xlink="http://www.w3.org/1999/xlink" width="1200" height="1560" viewBox="0 0 1200 1560" role="img" aria-label="World Cup forecast dashboard">
<defs>
<style>
text{font-family:-apple-system,BlinkMacSystemFont,'Segoe UI','PingFang SC','Noto Sans CJK SC',Arial,sans-serif}.bg{fill:#f6f7f2}.card{fill:#fff;stroke:#d9ded5;stroke-width:1}.title{font-size:38px;font-weight:700;fill:#172026}.subtitle{font-size:16px;font-weight:400;fill:#586069}.section-title{font-size:22px;font-weight:700;fill:#172026}.label{font-size:16px;font-weight:600;fill:#172026}.small{font-size:13px;font-weight:400;fill:#667085}.number{font-size:19px;font-weight:700;fill:#172026}.metric{font-size:28px;font-weight:700;fill:#172026}.chip{fill:#eef3ee;stroke:#d7dfd4}.chip-text{font-size:13px;font-weight:600;fill:#475467}.flag-fallback{font-size:13px;font-weight:700;fill:#475467}.bar-bg{fill:#edf1ec}.bar-a{fill:#1f6feb}.bar-b{fill:#d97706}.bar-win{fill:#13795b}.high{fill:#dff3ea}.medium{fill:#fff0cf}.low{fill:#fbe3dc}.high-text{fill:#13795b}.medium-text{fill:#b25e00}.low-text{fill:#c2410c}
</style>
</defs>
<rect width="1200" height="1560" class="bg"/>
<text x="42" y="62" class="title">世界杯预测日报 2026-07-04</text>
<text x="44" y="94" class="subtitle">2026-07-04 23:23:14  · season 2026 · runs 5000 · seed 20260704</text>
<rect x="42" y="112" width="124" height="30" rx="15" class="chip"/>
<text x="56" y="132" class="chip-text">88 completed</text>
<rect x="178" y="112" width="124" height="30" rx="15" class="chip"/>
<text x="192" y="132" class="chip-text">16 remaining</text>
<rect x="314" y="112" width="118" height="30" rx="15" class="chip"/>
<text x="328" y="132" class="chip-text">market: 未配置</text>
<rect x="40" y="160" width="540" height="435" rx="8" class="card"/>
<text x="66" y="202" class="section-title">冠军概率 Top 6</text>
<text x="66" y="253" class="small">1</text>
<rect x="92.0" y="232.0" width="42.0" height="30.0" rx="4" fill="#e8ece6" stroke="#cfd6ca"/><text x="113.0" y="252.0" text-anchor="middle" class="flag-fallback">法国</text>
<text x="148" y="252" class="label">法国</text>
<rect x="270" y="237" width="230" height="18" rx="9" class="bar-bg"/>
<rect x="270" y="237" width="230.0" height="18" rx="9" fill="#13795b"/>
<text x="518" y="252" text-anchor="end" class="number">44.9%</text>
<text x="66" y="309" class="small">2</text>
<rect x="92.0" y="288.0" width="42.0" height="30.0" rx="4" fill="#e8ece6" stroke="#cfd6ca"/><text x="113.0" y="308.0" text-anchor="middle" class="flag-fallback">...</text>
<text x="148" y="308" class="label">阿根廷</text>
<rect x="270" y="293" width="230" height="18" rx="9" class="bar-bg"/>
<rect x="270" y="293" width="136.3" height="18" rx="9" fill="#1f6feb"/>
<text x="518" y="308" text-anchor="end" class="number">26.6%</text>
<text x="66" y="365" class="small">3</text>
<rect x="92.0" y="344.0" width="42.0" height="30.0" rx="4" fill="#e8ece6" stroke="#cfd6ca"/><text x="113.0" y="364.0" text-anchor="middle" class="flag-fallback">巴西</text>
<text x="148" y="364" class="label">巴西</text>
<rect x="270" y="349" width="230" height="18" rx="9" class="bar-bg"/>
<rect x="270" y="349" width="95.8" height="18" rx="9" fill="#d97706"/>
<text x="518" y="364" text-anchor="end" class="number">18.7%</text>
<text x="66" y="421" class="small">4</text>
<rect x="92.0" y="400.0" width="42.0" height="30.0" rx="4" fill="#e8ece6" stroke="#cfd6ca"/><text x="113.0" y="420.0" text-anchor="middle" class="flag-fallback">...</text>
<text x="148" y="420" class="label">西班牙</text>
<rect x="270" y="405" width="230" height="18" rx="9" class="bar-bg"/>
<rect x="270" y="405" width="11.3" height="18" rx="9" fill="#7c3aed"/>
<text x="518" y="420" text-anchor="end" class="number">2.2%</text>
<text x="66" y="477" class="small">5</text>
<rect x="92.0" y="456.0" width="42.0" height="30.0" rx="4" fill="#e8ece6" stroke="#cfd6ca"/><text x="113.0" y="476.0" text-anchor="middle" class="flag-fallback">...</text>
<text x="148" y="476" class="label">墨西哥</text>
<rect x="270" y="461" width="230" height="18" rx="9" class="bar-bg"/>
<rect x="270" y="461" width="8.2" height="18" rx="9" fill="#c2410c"/>
<text x="518" y="476" text-anchor="end" class="number">1.6%</text>
<text x="66" y="533" class="small">6</text>
<rect x="92.0" y="512.0" width="42.0" height="30.0" rx="4" fill="#e8ece6" stroke="#cfd6ca"/><text x="113.0" y="532.0" text-anchor="middle" class="flag-fallback">...</text>
<text x="148" y="532" class="label">摩洛哥</text>
<rect x="270" y="517" width="230" height="18" rx="9" class="bar-bg"/>
<rect x="270" y="517" width="5.6" height="18" rx="9" fill="#667085"/>
<text x="518" y="532" text-anchor="end" class="number">1.1%</text>
<rect x="610" y="160" width="550" height="805" rx="8" class="card"/>
<text x="636" y="202" class="section-title">16 强预测</text>
<rect x="636" y="224" width="498" height="78" rx="8" fill="#fbfcfa" stroke="#e2e6df"/>
<text x="656" y="247" class="small">2026-07-04</text>
<rect x="1042" y="235" width="74" height="28" rx="14" class="high"/>
<text x="1079" y="254" text-anchor="middle" class="chip-text high-text">高置信</text>
<rect x="656.0" y="264.0" width="34.0" height="24.0" rx="4" fill="#e8ece6" stroke="#cfd6ca"/><text x="673.0" y="281.0" text-anchor="middle" class="flag-fallback">...</text>
<text x="700" y="279" class="label">巴拉圭</text>
<text x="800" y="296" text-anchor="end" class="number">4.6%</text>
<rect x="824" y="284" width="128" height="12" rx="6" class="bar-bg"/>
<rect x="824" y="284" width="5.9" height="12" rx="6" class="bar-a"/>
<rect x="829.9" y="284" width="122.1" height="12" rx="6" class="bar-b"/>
<rect x="972.0" y="264.0" width="34.0" height="24.0" rx="4" fill="#e8ece6" stroke="#cfd6ca"/><text x="989.0" y="281.0" text-anchor="middle" class="flag-fallback">法国</text>
<text x="1016" y="279" class="label">法国</text>
<text x="1118" y="296" text-anchor="end" class="number">95.4%</text>
<rect x="636" y="312" width="498" height="78" rx="8" fill="#fbfcfa" stroke="#e2e6df"/>
<text x="656" y="335" class="small">2026-07-04</text>
<rect x="1042" y="323" width="74" height="28" rx="14" class="low"/>
<text x="1079" y="342" text-anchor="middle" class="chip-text low-text">低置信</text>
<rect x="656.0" y="352.0" width="34.0" height="24.0" rx="4" fill="#e8ece6" stroke="#cfd6ca"/><text x="673.0" y="369.0" text-anchor="middle" class="flag-fallback">...</text>
<text x="700" y="367" class="label">加拿大</text>
<text x="800" y="384" text-anchor="end" class="number">40.1%</text>
<rect x="824" y="372" width="128" height="12" rx="6" class="bar-bg"/>
<rect x="824" y="372" width="51.3" height="12" rx="6" class="bar-a"/>
<rect x="875.3" y="372" width="76.7" height="12" rx="6" class="bar-b"/>
<rect x="972.0" y="352.0" width="34.0" height="24.0" rx="4" fill="#e8ece6" stroke="#cfd6ca"/><text x="989.0" y="369.0" text-anchor="middle" class="flag-fallback">...</text>
<text x="1016" y="367" class="label">摩洛哥</text>
<text x="1118" y="384" text-anchor="end" class="number">59.9%</text>
<rect x="636" y="400" width="498" height="78" rx="8" fill="#fbfcfa" stroke="#e2e6df"/>
<text x="656" y="423" class="small">2026-07-05</text>
<rect x="1042" y="411" width="74" height="28" rx="14" class="high"/>
<text x="1079" y="430" text-anchor="middle" class="chip-text high-text">高置信</text>
<rect x="656.0" y="440.0" width="34.0" height="24.0" rx="4" fill="#e8ece6" stroke="#cfd6ca"/><text x="673.0" y="457.0" text-anchor="middle" class="flag-fallback">巴西</text>
<text x="700" y="455" class="label">巴西</text>
<text x="800" y="472" text-anchor="end" class="number">86.3%</text>
<rect x="824" y="460" width="128" height="12" rx="6" class="bar-bg"/>
<rect x="824" y="460" width="110.5" height="12" rx="6" class="bar-a"/>
<rect x="934.5" y="460" width="17.5" height="12" rx="6" class="bar-b"/>
<rect x="972.0" y="440.0" width="34.0" height="24.0" rx="4" fill="#e8ece6" stroke="#cfd6ca"/><text x="989.0" y="457.0" text-anchor="middle" class="flag-fallback">挪威</text>
<text x="1016" y="455" class="label">挪威</text>
<text x="1118" y="472" text-anchor="end" class="number">13.7%</text>
<rect x="636" y="488" width="498" height="78" rx="8" fill="#fbfcfa" stroke="#e2e6df"/>
<text x="656" y="511" class="small">2026-07-05</text>
<rect x="1042" y="499" width="74" height="28" rx="14" class="low"/>
<text x="1079" y="518" text-anchor="middle" class="chip-text low-text">低置信</text>
<rect x="656.0" y="528.0" width="34.0" height="24.0" rx="4" fill="#e8ece6" stroke="#cfd6ca"/><text x="673.0" y="545.0" text-anchor="middle" class="flag-fallback">...</text>
<text x="700" y="543" class="label">墨西哥</text>
<text x="800" y="560" text-anchor="end" class="number">56.1%</text>
<rect x="824" y="548" width="128" height="12" rx="6" class="bar-bg"/>
<rect x="824" y="548" width="71.8" height="12" rx="6" class="bar-a"/>
<rect x="895.8" y="548" width="56.2" height="12" rx="6" class="bar-b"/>
<rect x="972.0" y="528.0" width="34.0" height="24.0" rx="4" fill="#e8ece6" stroke="#cfd6ca"/><text x="989.0" y="545.0" text-anchor="middle" class="flag-fallback">...</text>
<text x="1016" y="543" class="label">英格兰</text>
<text x="1118" y="560" text-anchor="end" class="number">43.9%</text>
<rect x="636" y="576" width="498" height="78" rx="8" fill="#fbfcfa" stroke="#e2e6df"/>
<text x="656" y="599" class="small">2026-07-06</text>
<rect x="1042" y="587" width="74" height="28" rx="14" class="low"/>
<text x="1079" y="606" text-anchor="middle" class="chip-text low-text">低置信</text>
<rect x="656.0" y="616.0" width="34.0" height="24.0" rx="4" fill="#e8ece6" stroke="#cfd6ca"/><text x="673.0" y="633.0" text-anchor="middle" class="flag-fallback">...</text>
<text x="700" y="631" class="label">葡萄牙</text>
<text x="800" y="648" text-anchor="end" class="number">36.9%</text>
<rect x="824" y="636" width="128" height="12" rx="6" class="bar-bg"/>
<rect x="824" y="636" width="47.2" height="12" rx="6" class="bar-a"/>
<rect x="871.2" y="636" width="80.8" height="12" rx="6" class="bar-b"/>
<rect x="972.0" y="616.0" width="34.0" height="24.0" rx="4" fill="#e8ece6" stroke="#cfd6ca"/><text x="989.0" y="633.0" text-anchor="middle" class="flag-fallback">...</text>
<text x="1016" y="631" class="label">西班牙</text>
<text x="1118" y="648" text-anchor="end" class="number">63.1%</text>
<rect x="636" y="664" width="498" height="78" rx="8" fill="#fbfcfa" stroke="#e2e6df"/>
<text x="656" y="687" class="small">2026-07-06</text>
<rect x="1042" y="675" width="74" height="28" rx="14" class="low"/>
<text x="1079" y="694" text-anchor="middle" class="chip-text low-text">低置信</text>
<rect x="656.0" y="704.0" width="34.0" height="24.0" rx="4" fill="#e8ece6" stroke="#cfd6ca"/><text x="673.0" y="721.0" text-anchor="middle" class="flag-fallback">美国</text>
<text x="700" y="719" class="label">美国</text>
<text x="800" y="736" text-anchor="end" class="number">53.3%</text>
<rect x="824" y="724" width="128" height="12" rx="6" class="bar-bg"/>
<rect x="824" y="724" width="68.2" height="12" rx="6" class="bar-a"/>
<rect x="892.2" y="724" width="59.8" height="12" rx="6" class="bar-b"/>
<rect x="972.0" y="704.0" width="34.0" height="24.0" rx="4" fill="#e8ece6" stroke="#cfd6ca"/><text x="989.0" y="721.0" text-anchor="middle" class="flag-fallback">...</text>
<text x="1016" y="719" class="label">比利时</text>
<text x="1118" y="736" text-anchor="end" class="number">46.7%</text>
<rect x="636" y="752" width="498" height="78" rx="8" fill="#fbfcfa" stroke="#e2e6df"/>
<text x="656" y="775" class="small">2026-07-07</text>
<rect x="1042" y="763" width="74" height="28" rx="14" class="high"/>
<text x="1079" y="782" text-anchor="middle" class="chip-text high-text">高置信</text>
<rect x="656.0" y="792.0" width="34.0" height="24.0" rx="4" fill="#e8ece6" stroke="#cfd6ca"/><text x="673.0" y="809.0" text-anchor="middle" class="flag-fallback">...</text>
<text x="700" y="807" class="label">阿根廷</text>
<text x="800" y="824" text-anchor="end" class="number">90.7%</text>
<rect x="824" y="812" width="128" height="12" rx="6" class="bar-bg"/>
<rect x="824" y="812" width="116.1" height="12" rx="6" class="bar-a"/>
<rect x="940.1" y="812" width="11.9" height="12" rx="6" class="bar-b"/>
<rect x="972.0" y="792.0" width="34.0" height="24.0" rx="4" fill="#e8ece6" stroke="#cfd6ca"/><text x="989.0" y="809.0" text-anchor="middle" class="flag-fallback">埃及</text>
<text x="1016" y="807" class="label">埃及</text>
<text x="1118" y="824" text-anchor="end" class="number">9.3%</text>
<rect x="636" y="840" width="498" height="78" rx="8" fill="#fbfcfa" stroke="#e2e6df"/>
<text x="656" y="863" class="small">2026-07-07</text>
<rect x="1042" y="851" width="74" height="28" rx="14" class="low"/>
<text x="1079" y="870" text-anchor="middle" class="chip-text low-text">低置信</text>
<rect x="656.0" y="880.0" width="34.0" height="24.0" rx="4" fill="#e8ece6" stroke="#cfd6ca"/><text x="673.0" y="897.0" text-anchor="middle" class="flag-fallback">瑞士</text>
<text x="700" y="895" class="label">瑞士</text>
<text x="800" y="912" text-anchor="end" class="number">55.5%</text>
<rect x="824" y="900" width="128" height="12" rx="6" class="bar-bg"/>
<rect x="824" y="900" width="71.0" height="12" rx="6" class="bar-a"/>
<rect x="895.0" y="900" width="57.0" height="12" rx="6" class="bar-b"/>
<rect x="972.0" y="880.0" width="34.0" height="24.0" rx="4" fill="#e8ece6" stroke="#cfd6ca"/><text x="989.0" y="897.0" text-anchor="middle" class="flag-fallback">...</text>
<text x="1016" y="895" class="label">哥伦比亚</text>
<text x="1118" y="912" text-anchor="end" class="number">44.5%</text>
<rect x="40" y="620" width="540" height="405" rx="8" class="card"/>
<text x="66" y="662" class="section-title">最可能冠亚季军组合</text>
<rect x="66" y="692" width="488" height="48" rx="8" fill="#fbfcfa" stroke="#e2e6df"/>
<text x="84" y="723" class="small">1</text>
<rect x="112.0" y="704.0" width="30.0" height="20.0" rx="4" fill="#e8ece6" stroke="#cfd6ca"/><text x="127.0" y="719.0" text-anchor="middle" class="flag-fallback">法国</text>
<text x="150" y="721" class="label">法国</text>
<text x="218" y="721" class="small">›</text>
<rect x="236.0" y="704.0" width="30.0" height="20.0" rx="4" fill="#e8ece6" stroke="#cfd6ca"/><text x="251.0" y="719.0" text-anchor="middle" class="flag-fallback">巴西</text>
<text x="274" y="721" class="label">巴西</text>
<text x="342" y="721" class="small">›</text>
<rect x="360.0" y="704.0" width="30.0" height="20.0" rx="4" fill="#e8ece6" stroke="#cfd6ca"/><text x="375.0" y="719.0" text-anchor="middle" class="flag-fallback">...</text>
<text x="398" y="721" class="label">阿根廷</text>
<text x="536" y="723" text-anchor="end" class="number">9.0%</text>
<rect x="66" y="754" width="488" height="48" rx="8" fill="#fbfcfa" stroke="#e2e6df"/>
<text x="84" y="785" class="small">2</text>
<rect x="112.0" y="766.0" width="30.0" height="20.0" rx="4" fill="#e8ece6" stroke="#cfd6ca"/><text x="127.0" y="781.0" text-anchor="middle" class="flag-fallback">法国</text>
<text x="150" y="783" class="label">法国</text>
<text x="218" y="783" class="small">›</text>
<rect x="236.0" y="766.0" width="30.0" height="20.0" rx="4" fill="#e8ece6" stroke="#cfd6ca"/><text x="251.0" y="781.0" text-anchor="middle" class="flag-fallback">...</text>
<text x="274" y="783" class="label">阿根廷</text>
<text x="342" y="783" class="small">›</text>
<rect x="360.0" y="766.0" width="30.0" height="20.0" rx="4" fill="#e8ece6" stroke="#cfd6ca"/><text x="375.0" y="781.0" text-anchor="middle" class="flag-fallback">巴西</text>
<text x="398" y="783" class="label">巴西</text>
<text x="536" y="785" text-anchor="end" class="number">8.9%</text>
<rect x="66" y="816" width="488" height="48" rx="8" fill="#fbfcfa" stroke="#e2e6df"/>
<text x="84" y="847" class="small">3</text>
<rect x="112.0" y="828.0" width="30.0" height="20.0" rx="4" fill="#e8ece6" stroke="#cfd6ca"/><text x="127.0" y="843.0" text-anchor="middle" class="flag-fallback">...</text>
<text x="150" y="845" class="label">阿根廷</text>
<text x="218" y="845" class="small">›</text>
<rect x="236.0" y="828.0" width="30.0" height="20.0" rx="4" fill="#e8ece6" stroke="#cfd6ca"/><text x="251.0" y="843.0" text-anchor="middle" class="flag-fallback">法国</text>
<text x="274" y="845" class="label">法国</text>
<text x="342" y="845" class="small">›</text>
<rect x="360.0" y="828.0" width="30.0" height="20.0" rx="4" fill="#e8ece6" stroke="#cfd6ca"/><text x="375.0" y="843.0" text-anchor="middle" class="flag-fallback">巴西</text>
<text x="398" y="845" class="label">巴西</text>
<text x="536" y="847" text-anchor="end" class="number">7.3%</text>
<rect x="66" y="878" width="488" height="48" rx="8" fill="#fbfcfa" stroke="#e2e6df"/>
<text x="84" y="909" class="small">4</text>
<rect x="112.0" y="890.0" width="30.0" height="20.0" rx="4" fill="#e8ece6" stroke="#cfd6ca"/><text x="127.0" y="905.0" text-anchor="middle" class="flag-fallback">巴西</text>
<text x="150" y="907" class="label">巴西</text>
<text x="218" y="907" class="small">›</text>
<rect x="236.0" y="890.0" width="30.0" height="20.0" rx="4" fill="#e8ece6" stroke="#cfd6ca"/><text x="251.0" y="905.0" text-anchor="middle" class="flag-fallback">法国</text>
<text x="274" y="907" class="label">法国</text>
<text x="342" y="907" class="small">›</text>
<rect x="360.0" y="890.0" width="30.0" height="20.0" rx="4" fill="#e8ece6" stroke="#cfd6ca"/><text x="375.0" y="905.0" text-anchor="middle" class="flag-fallback">...</text>
<text x="398" y="907" class="label">阿根廷</text>
<text x="536" y="909" text-anchor="end" class="number">5.5%</text>
<rect x="66" y="940" width="488" height="48" rx="8" fill="#fbfcfa" stroke="#e2e6df"/>
<text x="84" y="971" class="small">5</text>
<rect x="112.0" y="952.0" width="30.0" height="20.0" rx="4" fill="#e8ece6" stroke="#cfd6ca"/><text x="127.0" y="967.0" text-anchor="middle" class="flag-fallback">法国</text>
<text x="150" y="969" class="label">法国</text>
<text x="218" y="969" class="small">›</text>
<rect x="236.0" y="952.0" width="30.0" height="20.0" rx="4" fill="#e8ece6" stroke="#cfd6ca"/><text x="251.0" y="967.0" text-anchor="middle" class="flag-fallback">...</text>
<text x="274" y="969" class="label">阿根廷</text>
<text x="342" y="969" class="small">›</text>
<rect x="360.0" y="952.0" width="30.0" height="20.0" rx="4" fill="#e8ece6" stroke="#cfd6ca"/><text x="375.0" y="967.0" text-anchor="middle" class="flag-fallback">...</text>
<text x="398" y="969" class="label">西班牙</text>
<text x="536" y="971" text-anchor="end" class="number">2.6%</text>
<rect x="40" y="1050" width="540" height="315" rx="8" class="card"/>
<text x="66" y="1092" class="section-title">射手榜 Top 5</text>
<text x="66" y="1144" class="small">1</text>
<rect x="92.0" y="1124.0" width="32.0" height="23.0" rx="4" fill="#e8ece6" stroke="#cfd6ca"/><text x="108.0" y="1140.5" text-anchor="middle" class="flag-fallback">...</text>
<text x="136" y="1143" class="label">梅西</text>
<text x="410" y="1143" class="small">阿根廷</text>
<text x="536" y="1143" text-anchor="end" class="number">7</text>
<text x="66" y="1189" class="small">2</text>
<rect x="92.0" y="1169.0" width="32.0" height="23.0" rx="4" fill="#e8ece6" stroke="#cfd6ca"/><text x="108.0" y="1185.5" text-anchor="middle" class="flag-fallback">法国</text>
<text x="136" y="1188" class="label">姆巴佩</text>
<text x="410" y="1188" class="small">法国</text>
<text x="536" y="1188" text-anchor="end" class="number">6</text>
<text x="66" y="1234" class="small">3</text>
<rect x="92.0" y="1214.0" width="32.0" height="23.0" rx="4" fill="#e8ece6" stroke="#cfd6ca"/><text x="108.0" y="1230.5" text-anchor="middle" class="flag-fallback">挪威</text>
<text x="136" y="1233" class="label">哈兰德</text>
<text x="410" y="1233" class="small">挪威</text>
<text x="536" y="1233" text-anchor="end" class="number">5</text>
<text x="66" y="1279" class="small">4</text>
<rect x="92.0" y="1259.0" width="32.0" height="23.0" rx="4" fill="#e8ece6" stroke="#cfd6ca"/><text x="108.0" y="1275.5" text-anchor="middle" class="flag-fallback">...</text>
<text x="136" y="1278" class="label">凯恩</text>
<text x="410" y="1278" class="small">英格兰</text>
<text x="536" y="1278" text-anchor="end" class="number">5</text>
<text x="66" y="1324" class="small">5</text>
<rect x="92.0" y="1304.0" width="32.0" height="23.0" rx="4" fill="#e8ece6" stroke="#cfd6ca"/><text x="108.0" y="1320.5" text-anchor="middle" class="flag-fallback">...</text>
<text x="136" y="1323" class="label">伊斯梅拉·萨尔</text>
<text x="410" y="1323" class="small">塞内加尔</text>
<text x="536" y="1323" text-anchor="end" class="number">4</text>
<rect x="610" y="995" width="550" height="370" rx="8" class="card"/>
<text x="636" y="1037" class="section-title">证据栈与风险</text>
<rect x="636" y="1067" width="150" height="105" rx="8" fill="#fbfcfa" stroke="#e2e6df"/>
<text x="650" y="1097" class="small">头号冠军</text>
<text x="650" y="1135" class="metric">法国</text>
<text x="650" y="1160" class="small">44.9%</text>
<rect x="800" y="1067" width="150" height="105" rx="8" fill="#fbfcfa" stroke="#e2e6df"/>
<text x="814" y="1097" class="small">高置信场次</text>
<text x="814" y="1135" class="metric">3</text>
<text x="814" y="1160" class="small">/ 8</text>
<rect x="964" y="1067" width="150" height="105" rx="8" fill="#fbfcfa" stroke="#e2e6df"/>
<text x="978" y="1097" class="small">接近盘</text>
<text x="978" y="1135" class="metric">3</text>
<text x="978" y="1160" class="small">/ 8</text>
<text x="636" y="1226" class="label">评分来源</text>
<text x="636" y="1252" class="small">无公开评分</text>
<text x="636" y="1294" class="label">市场信号</text>
<text x="636" y="1320" class="small">未配置</text>
<text x="42" y="1510" class="small">flag-icons 7.5.0 · public data + transparent heuristic model · not betting advice</text>
</svg>